<svg width="24" height="24" viewBox="0 0 24 24" fill="none" xmlns="http://www.w3.org/2000/svg">
<rect width="24" height="24" rx="12" fill="#FFC21F"/>
<path d="M10.8005 14.4564L14.2521 11.1254C14.0165 11.4067 13.7735 11.6969 13.5295 11.9885C12.0718 13.7305 10.5473 15.5561 10.3843 15.769L10.3662 15.7926L10.35 15.8176C10.3073 15.8837 10.2214 15.9334 10.1297 15.9334C10.024 15.9334 9.94755 15.886 9.90421 15.8224L8.04215 12.7934C8.04157 12.7923 8.04125 12.7914 8.04109 12.7909C8.04126 12.7902 8.04187 12.7883 8.0438 12.7853C8.04526 12.7831 8.04801 12.7794 8.05294 12.7748C8.07857 12.7598 8.10761 12.7531 8.13387 12.7544C8.15419 12.7554 8.16702 12.7605 8.17482 12.7654L9.73211 14.4292L10.2525 14.9852L10.8005 14.4564Z" fill="#FFC21F" stroke="#344054" stroke-width="1.5"/>
</svg>
